PathFileType	4	(X/Y/Z)	/home/abdul/Desktop/myosuite/custom_workspace/IK/output/S14_12_2.trc
DataRate	CameraRate	NumFrames	NumMarkers	Units	OrigDataRate	OrigDataStartFrame	OrigNumFrames
200.0	200.0	39	3	mm	200.0	266	2124
Frame#	Time	V_Shoulder			V_Elbow			V_Wrist		
		X1	Y1	Z1	X2	Y2	Z2	X3	Y3	Z3

266	1.325	-148.22925216265227	677.8760592760563	322.8272453210048	-172.94724466325545	466.07603501386615	53.30939043474358	-77.4767095615636	233.83702002616846	44.48117828757817
267	1.33	-148.0529440359537	677.6798842278066	322.87944077947736	-172.7036431794752	465.90403376361894	53.30575078792245	-77.27077654931274	233.67135978154926	44.34702249272304
268	1.335	-147.87712691489244	677.483450779034	322.9315339007149	-172.4620562832797	465.73158617274055	53.30299592122276	-77.06691106308173	233.50446967793602	44.21532388370152
269	1.34	-147.7017802854673	677.2867083189865	322.9835164005912	-172.22245459918025	465.55866698807654	53.301048945072765	-76.86504189990761	233.33632472626965	44.08603805209407
270	1.345	-147.52688446256138	677.089606378554	323.0353785012269	-171.98480585349586	465.3852543736434	53.29982571364306	-76.66509430974575	233.16690792819253	43.95910441032103
271	1.35	-147.35242064772598	676.8920947337821	323.0871089426839	-171.7490751269862	465.2113300429038	53.29923505778226	-76.46699030089438	232.99621024458156	43.83444664946056
272	1.355	-147.1783709857121	676.694123512365	323.1386949982422	-171.5152251134012	465.036879373195	53.299179044317995	-76.27064896433679	232.82423053095903	43.71197326077221
273	1.36	-147.00471861961924	676.4956433027542	323.19012249326414	-171.2832163827433	464.8618915019248	53.29955326081044	-76.0759868153883	232.65097544039216	43.59157811796139
274	1.365	-146.83144774453123	676.2966052655094	323.24137582763825	-171.0530076480469	464.6863594042421	53.30024712475518	-75.88291815094617	232.47645929464355	43.47314111705893
275	1.37	-146.65854365950884	676.0969612465063	323.29243800178705	-170.82455603448471	464.5102799519887	53.30114421614521	-75.69135542055865	232.30070392447408	43.35652887064278
276	1.375	-146.4859928178111	675.8966638916087	323.34329064621187	-170.59781734962712	464.3336539538298	53.30212263221917	-75.50120960945907	232.12373848013686	43.241595452995824
277	1.38	-146.31378287521753	675.6956667624094	323.3939140545403	-170.37274635369752	464.15648617655677	53.3030553631444	-75.3123906316473	231.94559921322565	43.12818319267335
278	1.385	-146.1419027363247	675.4939244526344	323.4442872200304	-170.14929702868767	463.97878534764595	53.303810687308825	-75.12480773105071	231.7663292311613	43.016123508846974
279	1.39	-145.97034259869486	675.2913927048078	323.49438787547666	-169.92742284522413	463.8005641392472	53.304252584826315	-74.93836988875479	231.5859782257083	42.90523778769722
280	1.395	-145.79909399473277	675.088028526767	323.5441925364526	-169.70707702610497	463.6218391338641	53.30424116779517	-74.75298623426423	231.40460217701514	42.79533829504446
281	1.4	-145.62814983117394	674.883790307622	323.5936765478155	-169.48821280545948	463.44263077207063	53.30363312578953	-74.56856645873665	231.2222630347639	42.686229121337576
282	1.405	-145.45750442606735	674.6786379327533	323.6428141333895	-169.270783682521	463.26296328269086	53.30228218500874	-74.38502122812423	231.03902837809645	42.57770715506014
283	1.41	-145.28715354314008	674.4725328974437	323.6915784487315	-169.05474366904178	463.082864595949	53.300039579460645	-74.20226259416306	230.85497105605833	42.4695630805662
284	1.415	-145.11709442343616	674.2654384187437	323.73994163687865	-168.84004752942295	462.9023662401686	53.29675453251066	-74.02020440116681	230.6701688103645	42.3615823963199
285	1.42	-144.94732581412453	674.0573195451816	323.78787488696327	-168.62665101267805	462.721503222672	53.29227474709073	-73.83876268660919	230.48470388234483	42.253546449486535
286	1.425	-144.7778479943764	673.8481432639245	323.8353484955748	-168.41451107539785	462.54031389559776	53.286446902829866	-73.65785607351923	230.29866260597214	42.14523348280582
287	1.43	-144.6086627982176	673.6378786050192	323.8823319307376	-168.2035860949358	462.35883980741767	53.27911715834202	-73.47740615276362	230.1121349889092	42.0364196896717
288	1.435	-144.43977363426552	673.4264967423392	323.92879389836736	-167.99383607208722	462.1771255409915	53.27013165688692	-73.29733785335243	229.92521428353797	41.9268802733462
289	1.44	-144.27118550226658	673.2139710908831	323.97470241105776	-167.78522282259132	461.99521853905094	53.259337033606	-73.11757979897624	229.73799654994912	41.81639050624816
290	1.445	-144.10290500635634	673.0002774000774	324.02002485904467	-167.57771015684304	461.8131689180554	53.24658092252792	-72.93806464906392	229.55058021287778	41.704726785281025
291	1.45	-143.93494036497012	672.7853938427523	324.0647280831858	-167.37126404726212	461.6310292714038	53.23171246153768	-72.75872942274157	229.36306561456826	41.591667679196604
292	1.455	-143.7673014173391	672.5693010994711	324.10877844978694	-167.16585278282656	461.4488544630253	53.214582793509166	-72.57951580417259	229.17555456554203	41.476994964035065
293	1.46	-143.5999996265127	672.3519824379129	324.15214192710073	-166.96144711034125	461.26670141240817	53.195045561812975	-72.40037042786568	228.9881498952226	41.360494642734494
294	1.465	-143.43304807885707	672.1334237870193	324.1947841633173	-166.75802036207423	461.0846288721509	53.172957398431016	-72.2212451426523	228.80095500434533	41.241957945066744
295	1.47	-143.26646147998466	671.9136138056391	324.2366705658605	-166.55554856945764	460.9026971991466	53.14817840293469	-72.0420972531549	228.6140734210456	41.12118230413018
296	1.475	-143.10025614707948	671.692543945418	324.27776638179967	-166.35401056261492	460.72096812052644	53.12057261061618	-71.86288973769338	228.42760836247652	40.99797230571444
297	1.48	-142.93444999758967	671.4702085077016	324.31803677918225	-166.15338805553912	460.53950449550246	53.09000844810122	-71.68359144170637	228.2416623037601	40.87214060694748
298	1.485	-142.76906253426685	671.2466046942395	324.3574469290888	-165.95366571681245	460.3583700742564	53.05635917481783	-71.50417724589877	228.05633655601918	40.743508820741674
299	1.49	-142.6041148265413	671.0217326514975	324.3959620882092	-165.7548312258202	460.1776292550226	53.01950330874705	-71.32462820846133	227.87173085517745	40.61190836267303
300	1.495	-142.4396294882288	670.7955955084058	324.433547681737	-165.5568753144753	459.99734684051134	52.979325034941	-71.14493168084648	227.68794296314684	40.47718125705645
301	1.5	-142.2756306515758	670.5681994073942	324.47016938637637	-165.35979179453273	459.8175877948084	52.935714595357695	-70.96508139672258	227.50506828295042	40.33918089912039
302	1.505	-142.1121439376561	670.3395535285822	324.50579321325534	-165.1635775706332	459.63841700187425	52.888568658633346	-70.7850775338663	227.32319948925002	40.19777277033582
303	1.51	-141.94919642314275	670.1096701070204	324.54038559053953	-164.9682326392749	459.4598990267465	52.83779066848932	-70.6049267488902	227.142426175668	40.05283510411804
304	1.515	-141.7868166034871	669.8785644428946	324.57391344554	-164.77376007397135	459.28209788052675	52.78329116955328	-70.4246421848361	226.9628345202043	39.90425949929468
